<svg width="1282" height="251" viewBox="0 0 1282 251" fill="none" xmlns="http://www.w3.org/2000/svg">
<path d="M43.5258 181.144C0.643199 123.532 -10.6896 69.2628 24.7218 0C40.2455 8.36052 55.7691 16.7238 71.2898 25.0871C34.7501 71.1728 22.0795 113.631 43.5258 181.144Z" fill="url(#paint0_linear_403_6)"/>
<path d="M69.2896 45.9458C125.992 1.86777 180.012 -10.5975 250 23.3575C241.966 39.0524 233.929 54.7476 225.893 70.4399C179.053 34.8721 136.339 23.0923 69.2896 45.9458Z" fill="url(#paint1_linear_403_6)"/>
<path d="M203.999 69.9209C247.873 126.781 260.144 180.846 225.938 250.712C210.272 242.621 194.606 234.528 178.943 226.435C214.679 179.723 226.612 137.052 203.999 69.9209Z" fill="url(#paint2_linear_403_6)"/>
<path d="M181.054 205.278C123.643 248.428 69.4266 260.013 0 224.924C8.28815 209.361 16.5792 193.799 24.8702 178.24C71.1252 214.564 113.642 227.038 181.054 205.278Z" fill="url(#paint3_linear_403_6)"/>
<path fill-rule="evenodd" clip-rule="evenodd" d="M394.338 83.5248C394.338 47.4181 373.452 22.4806 337.67 22.4806C301.884 22.4806 281 47.4181 281 83.5248C281 113.639 298.971 144.566 337.67 144.566C376.365 144.566 394.338 113.639 394.338 83.5248ZM378.793 83.5248C378.793 111.859 365.356 130.965 337.67 130.965C309.981 130.965 296.543 111.859 296.543 83.5248C296.543 55.8391 311.6 36.0829 337.67 36.0829C363.736 36.0829 378.793 55.8391 378.793 83.5248ZM410.531 225.808H425.102V132.098H425.425C428.179 137.604 436.598 144.244 447.77 144.244C470.276 144.244 485.008 130.965 485.008 96.1536C485.008 68.3051 468.493 54.3775 450.361 54.3775C436.759 54.3775 429.311 60.6953 425.425 68.6303H425.102V56.9718H410.531V225.808ZM424.78 99.7145C424.78 80.6088 431.902 67.0098 447.284 67.0098C463.315 67.0098 470.439 80.6088 470.439 99.7145C470.439 118.013 463.315 131.615 447.284 131.615C431.902 131.615 424.78 118.013 424.78 99.7145ZM559.326 114.612C556.414 122.381 551.395 131.615 536.338 131.615C521.603 131.615 512.697 120.927 512.535 104.412H574.387V97.1239C574.387 68.3052 558.359 54.3775 535.202 54.3775C518.849 54.3775 496.992 67.8176 496.992 98.7444C496.992 129.507 513.83 144.244 536.497 144.244C557.386 144.244 571.151 129.346 573.413 114.612H559.326ZM512.535 92.7551C513.507 77.8573 523.061 67.0098 536.338 67.0098C550.262 67.0098 559.489 76.2401 559.814 92.7551H512.535ZM590.902 141.653H605.476V95.1832C605.476 72.1914 619.722 67.0098 627.818 67.0098C641.742 67.0098 645.953 74.457 645.953 89.1906V141.653H660.523V83.85C660.523 59.7252 644.008 54.3775 630.895 54.3775C615.997 54.3775 608.065 64.2564 604.989 68.7895H604.663V56.9718H590.902V141.653ZM730.472 141.653H746.015V0H730.472V141.653ZM770.949 141.653H785.522V95.1832C785.522 72.1914 799.771 67.0098 807.865 67.0098C821.789 67.0098 825.999 74.457 825.999 89.1906V141.653H840.574V83.85C840.574 59.7252 824.059 54.3775 810.942 54.3775C796.048 54.3775 788.113 64.2564 785.036 68.7895H784.714V56.9718H770.949V141.653ZM893.195 68.6303V56.9718H879.105V46.2835C879.105 39.4831 881.374 36.4081 887.365 36.4081C889.147 36.4081 891.412 36.7331 893.195 36.8957V24.1044C890.93 23.9385 888.821 23.7759 886.556 23.7759C872.632 23.7759 864.536 29.6077 864.536 42.3974V56.9718H853.04V68.6303H864.536V141.653H879.105V68.6303H893.195ZM962.332 99.2304C962.332 118.173 953.752 131.615 937.559 131.615C921.369 131.615 912.785 118.173 912.785 99.2304C912.785 80.4463 921.369 67.0098 937.559 67.0098C953.752 67.0098 962.332 80.4463 962.332 99.2304ZM976.903 99.2304C976.903 71.7037 962.169 54.3775 937.559 54.3775C912.946 54.3775 898.214 71.7037 898.214 99.2304C898.214 126.918 912.946 144.244 937.559 144.244C962.169 144.244 976.903 126.918 976.903 99.2304ZM962.679 13.9885H1002.19V141.653H1017.73V13.9885H1057.24V0.386126H962.679V13.9885ZM1098.85 114.612C1095.94 122.381 1090.92 131.615 1075.86 131.615C1061.12 131.615 1052.22 120.927 1052.05 104.412H1113.91V97.1239C1113.91 68.3052 1097.88 54.3775 1074.72 54.3775C1058.37 54.3775 1036.51 67.8176 1036.51 98.7444C1036.51 129.507 1053.35 144.244 1076.02 144.244C1096.91 144.244 1110.67 129.346 1112.93 114.612H1098.85ZM1052.05 92.7551C1053.03 77.8573 1062.58 67.0098 1075.86 67.0098C1089.78 67.0098 1099.01 76.2401 1099.33 92.7551H1052.05ZM1183.85 111.859C1181.75 124.972 1173.49 132.582 1163.29 132.582C1149.04 132.582 1140.46 122.869 1140.46 100.526C1140.46 80.6088 1148.23 67.0098 1164.26 67.0098C1175.92 67.0098 1182.39 73.971 1183.85 85.4653H1197.45C1196.48 72.5148 1189.36 54.3775 1162.64 54.3775C1143.05 54.3775 1125.89 71.7036 1125.89 99.7145C1125.89 133.877 1146.13 144.244 1161.19 144.244C1188.55 144.244 1196.16 124.327 1197.45 111.859H1183.85ZM1211.38 141.653H1225.95V95.1832C1225.95 73.8102 1237.93 67.0098 1249.59 67.0098C1263.19 67.0098 1266.43 74.4622 1266.43 85.9529V141.653H1281V83.85C1281 59.7252 1264.48 54.3775 1251.37 54.3775C1237.45 54.3775 1230.32 62.7985 1226.28 68.1426H1225.95V0H1211.38V141.653Z" fill="#2F373A"/>
<path fill-rule="evenodd" clip-rule="evenodd" d="M455.604 191.15C455.604 190.325 455.989 184.658 453.018 181.246C450.872 178.771 447.406 178 444.324 178C438.273 178 435.577 180.477 434.201 182.842C433.211 184.603 432.551 186.694 432.275 190.986C432.11 194.012 432 197.037 432 200.063C432 207.216 432.55 210.957 434.256 213.984C434.475 214.424 435.246 215.689 436.457 216.625C439.263 218.826 443.444 218.826 444.269 218.826C445.15 218.826 447.461 218.715 449.771 217.67C450.212 217.45 451.202 217.01 452.193 216.074C453.073 215.249 453.568 214.369 453.788 213.929C455.549 210.793 455.604 207.602 455.604 204.08H448.451C448.506 207.657 448.011 210.297 447.186 211.563C446.25 212.993 444.93 213.104 444.269 213.104C442.619 213.104 441.409 212.498 440.693 211.013C439.758 209.307 439.648 205.291 439.648 200.284C439.648 193.791 439.758 188.894 440.638 186.418C441.464 183.997 443.334 183.833 444.38 183.833C444.82 183.833 446.25 183.777 447.186 184.933C448.396 186.418 448.506 189.39 448.561 191.15H455.604ZM474.149 178.056C468.482 178.166 465.951 180.091 464.41 182.292C462.045 185.648 461.659 190.105 461.659 198.413C461.659 206.391 462.155 211.013 464.246 214.259C466.612 217.945 470.353 218.826 474.479 218.826C480.202 218.826 484.164 216.845 485.924 211.123C486.969 207.932 487.079 204.025 487.079 196.872C487.079 189.884 486.639 186.308 484.934 183.282C483.448 180.477 480.752 177.945 474.149 178.056ZM474.534 183.722C475.745 183.722 476.845 183.942 477.726 184.767C478.661 185.703 479.157 187.133 479.432 189.884C479.541 191.205 479.596 192.526 479.596 193.901C479.651 195.387 479.651 196.927 479.651 198.523C479.651 203.64 479.487 207.546 478.991 209.527C478.166 212.828 475.91 213.159 474.534 213.159C472.719 213.159 471.674 212.553 471.068 212.058C469.858 210.903 469.638 209.032 469.418 207.491C469.142 204.85 469.087 202.21 469.087 199.514C469.087 193.846 469.253 189.61 469.803 187.409C470.683 183.888 472.994 183.667 474.534 183.722ZM495.281 178.88V217.945H502.159L501.718 188.95L513.383 217.945H522.021V178.88H515.088L515.748 207.491L504.305 178.88H495.281ZM531.158 178.88V217.945H538.035L537.595 188.95L549.259 217.945H557.898V178.88H550.965L551.625 207.491L540.182 178.88H531.158ZM567.035 178.935V217.945H587.392V211.508H574.187V200.669H586.402V194.506H574.187V185.318H587.227V178.935H567.035ZM617.327 191.15C617.327 190.325 617.712 184.658 614.741 181.246C612.596 178.771 609.129 178 606.048 178C599.996 178 597.3 180.477 595.924 182.842C594.934 184.603 594.274 186.694 593.998 190.986C593.833 194.012 593.723 197.037 593.723 200.063C593.723 207.216 594.274 210.957 595.979 213.984C596.199 214.424 596.97 215.689 598.18 216.625C600.986 218.826 605.167 218.826 605.993 218.826C606.873 218.826 609.184 218.715 611.494 217.67C611.935 217.45 612.926 217.01 613.916 216.074C614.796 215.249 615.291 214.369 615.511 213.929C617.272 210.793 617.327 207.602 617.327 204.08H610.175C610.229 207.657 609.734 210.297 608.909 211.563C607.973 212.993 606.653 213.104 605.993 213.104C604.342 213.104 603.132 212.498 602.417 211.013C601.481 209.307 601.371 205.291 601.371 200.284C601.371 193.791 601.481 188.894 602.362 186.418C603.187 183.997 605.058 183.833 606.103 183.833C606.543 183.833 607.973 183.777 608.909 184.933C610.119 186.418 610.23 189.39 610.284 191.15H617.327ZM621.182 178.935V185.373H629.545V217.89H636.918V185.318H645.226V178.935H621.182ZM662.727 178.88V217.945H669.989V201.274H676.482C678.848 201.164 679.893 200.889 681.048 200.448C686.716 198.028 686.716 191.15 686.716 189.884C686.716 182.677 683.305 180.091 680.003 179.266C678.958 179.045 678.132 178.935 676.041 178.88H662.727ZM669.989 184.383H674.996C675.986 184.493 676.207 184.493 676.757 184.713C678.958 185.538 679.343 188.069 679.343 190.05C679.343 193.571 678.022 195.057 676.317 195.607C675.822 195.717 675.326 195.827 674.281 195.827H669.989V184.383ZM693.431 178.935V217.945H713.789V211.508H700.584V200.669H712.799V194.506H700.584V185.318H713.624V178.935H693.431ZM732.665 178.056C726.997 178.166 724.467 180.091 722.926 182.292C720.56 185.648 720.175 190.105 720.175 198.413C720.175 206.391 720.67 211.013 722.761 214.259C725.127 217.945 728.869 218.826 732.995 218.826C738.717 218.826 742.679 216.845 744.439 211.123C745.485 207.932 745.595 204.025 745.595 196.872C745.595 189.884 745.155 186.308 743.449 183.282C741.963 180.477 739.268 177.945 732.665 178.056ZM733.05 183.722C734.261 183.722 735.361 183.942 736.242 184.767C737.176 185.703 737.672 187.133 737.947 189.884C738.057 191.205 738.112 192.526 738.112 193.901C738.167 195.387 738.167 196.927 738.167 198.523C738.167 203.64 738.002 207.546 737.507 209.527C736.681 212.828 734.425 213.159 733.05 213.159C731.234 213.159 730.189 212.553 729.584 212.058C728.373 210.903 728.153 209.032 727.933 207.491C727.658 204.85 727.603 202.21 727.603 199.514C727.603 193.846 727.768 189.61 728.318 187.409C729.199 183.888 731.51 183.667 733.05 183.722ZM753.851 178.88V217.945H761.114V201.274H767.607C769.973 201.164 771.018 200.889 772.173 200.448C777.841 198.028 777.841 191.15 777.841 189.884C777.841 182.677 774.429 180.091 771.128 179.266C770.083 179.045 769.257 178.935 767.166 178.88H753.851ZM761.114 184.383H766.121C767.111 184.493 767.332 184.493 767.881 184.713C770.083 185.538 770.468 188.069 770.468 190.05C770.468 193.571 769.147 195.057 767.441 195.607C766.946 195.717 766.451 195.827 765.406 195.827H761.114V184.383ZM784.556 178.99V217.945H805.299V211.673H791.929V178.99H784.556ZM810.695 178.935V217.945H831.053V211.508H817.848V200.669H830.062V194.506H817.848V185.318H830.887V178.935H810.695ZM854.44 178.935H846.902L854.33 217.89H863.354L867.37 191.59L871.497 217.945H880.41L888.003 178.935H880.575L876.008 210.572L870.891 178.935H864.454L859.172 210.793L854.44 178.935ZM893.949 178.935V217.945H901.211V178.935H893.949ZM907.048 178.935V185.373H915.411V217.89H922.784V185.318H931.092V178.935H907.048ZM935.883 178.935V217.945H943.145V200.174H952.994V217.945H960.312V178.935H952.994V194.231H943.2V178.935H935.883ZM977.702 178.935V185.373H986.065V217.89H993.438V185.318H1001.75V178.935H977.702ZM1006.59 178.935V217.945H1026.95V211.508H1013.74V200.669H1025.96V194.506H1013.74V185.318H1026.78V178.935H1006.59ZM1056.88 191.15C1056.88 190.325 1057.27 184.658 1054.3 181.246C1052.15 178.771 1048.69 178 1045.6 178C1039.55 178 1036.86 180.477 1035.48 182.842C1034.49 184.603 1033.83 186.694 1033.56 190.986C1033.39 194.012 1033.28 197.037 1033.28 200.063C1033.28 207.216 1033.83 210.957 1035.54 213.984C1035.76 214.424 1036.53 215.689 1037.74 216.625C1040.54 218.826 1044.72 218.826 1045.55 218.826C1046.43 218.826 1048.74 218.715 1051.05 217.67C1051.49 217.45 1052.48 217.01 1053.47 216.074C1054.35 215.249 1054.85 214.369 1055.07 213.929C1056.83 210.793 1056.88 207.602 1056.88 204.08H1049.73C1049.79 207.657 1049.29 210.297 1048.47 211.563C1047.53 212.993 1046.21 213.104 1045.55 213.104C1043.9 213.104 1042.69 212.498 1041.97 211.013C1041.04 209.307 1040.93 205.291 1040.93 200.284C1040.93 193.791 1041.04 188.894 1041.92 186.418C1042.74 183.997 1044.61 183.833 1045.66 183.833C1046.1 183.833 1047.53 183.777 1048.47 184.933C1049.68 186.418 1049.79 189.39 1049.84 191.15H1056.88ZM1063.99 178.935V217.945H1071.25V200.174H1081.1V217.945H1088.42V178.935H1081.1V194.231H1071.3V178.935H1063.99ZM1097.66 178.88V217.945H1104.54L1104.1 188.95L1115.76 217.945H1124.4V178.88H1117.47L1118.13 207.491L1106.69 178.88H1097.66ZM1144.93 178.056C1139.26 178.166 1136.73 180.091 1135.19 182.292C1132.82 185.648 1132.44 190.105 1132.44 198.413C1132.44 206.391 1132.93 211.013 1135.02 214.259C1137.39 217.945 1141.13 218.826 1145.26 218.826C1150.98 218.826 1154.94 216.845 1156.7 211.123C1157.75 207.932 1157.86 204.025 1157.86 196.872C1157.86 189.884 1157.42 186.308 1155.71 183.282C1154.23 180.477 1151.53 177.945 1144.93 178.056ZM1145.31 183.722C1146.52 183.722 1147.62 183.942 1148.51 184.767C1149.44 185.703 1149.94 187.133 1150.21 189.884C1150.32 191.205 1150.38 192.526 1150.38 193.901C1150.43 195.387 1150.43 196.927 1150.43 198.523C1150.43 203.64 1150.27 207.546 1149.77 209.527C1148.95 212.828 1146.69 213.159 1145.31 213.159C1143.5 213.159 1142.45 212.553 1141.85 212.058C1140.64 210.903 1140.42 209.032 1140.2 207.491C1139.92 204.85 1139.87 202.21 1139.87 199.514C1139.87 193.846 1140.03 189.61 1140.58 187.409C1141.46 183.888 1143.77 183.667 1145.31 183.722ZM1166.06 178.99V217.945H1186.8V211.673H1173.43V178.99H1166.06ZM1204.14 178.056C1198.47 178.166 1195.94 180.091 1194.4 182.292C1192.03 185.648 1191.65 190.105 1191.65 198.413C1191.65 206.391 1192.14 211.013 1194.23 214.259C1196.6 217.945 1200.34 218.826 1204.47 218.826C1210.19 218.826 1214.15 216.845 1215.91 211.123C1216.96 207.932 1217.07 204.025 1217.07 196.872C1217.07 189.884 1216.63 186.308 1214.92 183.282C1213.44 180.477 1210.74 177.945 1204.14 178.056ZM1204.52 183.722C1205.73 183.722 1206.83 183.942 1207.72 184.767C1208.65 185.703 1209.15 187.133 1209.42 189.884C1209.53 191.205 1209.59 192.526 1209.59 193.901C1209.64 195.387 1209.64 196.927 1209.64 198.523C1209.64 203.64 1209.48 207.546 1208.98 209.527C1208.16 212.828 1205.9 213.159 1204.52 213.159C1202.71 213.159 1201.66 212.553 1201.06 212.058C1199.85 210.903 1199.63 209.032 1199.41 207.491C1199.13 204.85 1199.08 202.21 1199.08 199.514C1199.08 193.846 1199.24 189.61 1199.79 187.409C1200.67 183.888 1202.98 183.667 1204.52 183.722ZM1250.19 191.316C1250.14 189.39 1250.14 187.244 1249.59 185.373C1249.37 184.713 1248.98 183.557 1247.99 182.182C1246.34 179.926 1243.65 178.056 1237.81 178.056C1231.71 178.056 1228.96 180.146 1227.31 182.457C1226.21 184.052 1225.49 186.033 1225.05 189.995C1224.77 193.021 1224.66 196.047 1224.66 199.073C1224.66 205.676 1224.88 209.142 1226.04 212.168C1226.76 214.038 1228.24 217.285 1233.08 218.276C1233.63 218.44 1234.84 218.66 1236.38 218.66C1240.24 218.66 1242.33 216.9 1243.26 215.634C1243.59 215.194 1243.87 214.699 1244.31 213.653L1244.58 217.945H1249.97V196.652H1237.98V202.925H1242.99C1242.99 207.106 1242.38 210.077 1241.17 211.398C1239.91 212.828 1238.25 212.883 1237.65 212.883C1236.27 212.883 1234.62 212.388 1233.74 211.233C1232.2 209.197 1232.15 204.961 1232.15 199.128C1232.15 193.956 1232.31 189.884 1232.86 187.849C1233.03 187.134 1233.3 186.528 1233.69 185.923C1234.35 184.878 1235.39 183.777 1238.09 183.777C1240.35 183.777 1242.66 184.713 1243.1 189.335C1243.15 189.995 1243.15 190.655 1243.15 191.316H1250.19ZM1254.54 178.935L1264.61 201.769V217.945H1271.93V201.825L1282 178.935H1274.35L1268.41 194.066L1262.52 178.935H1254.54Z" fill="#2F373A"/>
<defs>
<linearGradient id="paint0_linear_403_6" x1="701.297" y1="-1131.3" x2="864.108" y2="-1051.89" gradientUnits="userSpaceOnUse">
<stop stop-color="#F07C00"/>
<stop offset="1" stop-color="#FFCB00"/>
</linearGradient>
<linearGradient id="paint1_linear_403_6" x1="650.644" y1="-1582.86" x2="716.503" y2="-1573.61" gradientUnits="userSpaceOnUse">
<stop stop-color="#BF0516"/>
<stop offset="1" stop-color="#E30016"/>
</linearGradient>
<linearGradient id="paint2_linear_403_6" x1="-1937.49" y1="-916.783" x2="-2103.91" y2="-987.423" gradientUnits="userSpaceOnUse">
<stop stop-color="#0088C0"/>
<stop offset="1" stop-color="#026C8F"/>
</linearGradient>
<linearGradient id="paint3_linear_403_6" x1="784.742" y1="-1584.41" x2="851.932" y2="-1579.71" gradientUnits="userSpaceOnUse">
<stop stop-color="#296C37"/>
<stop offset="1" stop-color="#78B52C"/>
</linearGradient>
</defs>
</svg>
